<?xml version="1.0" encoding="UTF-8" standalone="no"?>
<!DOCTYPE svg PUBLIC "-//W3C//DTD SVG 1.1//EN"
 "http://www.w3.org/Graphics/SVG/1.1/DTD/svg11.dtd">
<!-- Generated by graphviz version 2.43.0 (0)
 -->
<!-- Title: G Pages: 1 -->
<svg width="2327pt" height="188pt"
 viewBox="0.00 0.00 2327.00 188.00" xmlns="http://www.w3.org/2000/svg" xmlns:xlink="http://www.w3.org/1999/xlink">
<g id="graph0" class="graph" transform="scale(1 1) rotate(0) translate(4 184)">
<title>G</title>
<polygon fill="white" stroke="transparent" points="-4,4 -4,-184 2323,-184 2323,4 -4,4"/>
<!-- root139 -->
<g id="node1" class="node">
<title>root139</title>
<polygon fill="none" stroke="black" points="1429,-180 866,-180 866,-144 1429,-144 1429,-180"/>
<text text-anchor="middle" x="1147.5" y="-158.3" font-family="Times,serif" font-size="14.00">8d231b24924aa53a1ece0f22df0fc871d1d6db4033ec4c09bb2c414a77e2ef6b</text>
</g>
<!-- left167 -->
<g id="node2" class="node">
<title>left167</title>
<polygon fill="none" stroke="black" points="1141.5,-108 565.5,-108 565.5,-72 1141.5,-72 1141.5,-108"/>
<text text-anchor="middle" x="853.5" y="-86.3" font-family="Times,serif" font-size="14.00">64a2e98dd9128e668d406f54eca250d5e9a17cc78147cb36d10d33e4ed305d7b</text>
</g>
<!-- root139&#45;&gt;left167 -->
<g id="edge1" class="edge">
<title>root139&#45;&gt;left167</title>
<path fill="none" stroke="black" d="M1075.96,-143.97C1033.37,-133.83 979.19,-120.93 934.96,-110.4"/>
<polygon fill="black" stroke="black" points="935.65,-106.96 925.11,-108.05 934.03,-113.77 935.65,-106.96"/>
</g>
<!-- right167 -->
<g id="node5" class="node">
<title>right167</title>
<polygon fill="none" stroke="black" points="1725.5,-108 1159.5,-108 1159.5,-72 1725.5,-72 1725.5,-108"/>
<text text-anchor="middle" x="1442.5" y="-86.3" font-family="Times,serif" font-size="14.00">173b8b44126c4b9fd20fb86fb7fd9ef601a234c290de1d82ae63d5b0242b592e</text>
</g>
<!-- root139&#45;&gt;right167 -->
<g id="edge4" class="edge">
<title>root139&#45;&gt;right167</title>
<path fill="none" stroke="black" d="M1219.29,-143.97C1262.02,-133.83 1316.38,-120.93 1360.76,-110.4"/>
<polygon fill="black" stroke="black" points="1361.72,-113.76 1370.65,-108.05 1360.11,-106.95 1361.72,-113.76"/>
</g>
<!-- left354 -->
<g id="node3" class="node">
<title>left354</title>
<polygon fill="none" stroke="black" points="553,-36 0,-36 0,0 553,0 553,-36"/>
<text text-anchor="middle" x="276.5" y="-14.3" font-family="Times,serif" font-size="14.00">dffe8596427fc50e8f64654a609af134d45552f18bbecef90b31135a9e7acaa0</text>
</g>
<!-- left167&#45;&gt;left354 -->
<g id="edge2" class="edge">
<title>left167&#45;&gt;left354</title>
<path fill="none" stroke="black" d="M713.09,-71.97C626.44,-61.45 515.35,-47.98 426.91,-37.25"/>
<polygon fill="black" stroke="black" points="427.14,-33.75 416.79,-36.02 426.3,-40.7 427.14,-33.75"/>
</g>
<!-- right354 -->
<g id="node4" class="node">
<title>right354</title>
<polygon fill="none" stroke="black" points="1137.5,-36 571.5,-36 571.5,0 1137.5,0 1137.5,-36"/>
<text text-anchor="middle" x="854.5" y="-14.3" font-family="Times,serif" font-size="14.00">d76354d8457898445bb69e0dc0dc95fb74cc3cf334f8c1859162a16ad0041f8d</text>
</g>
<!-- left167&#45;&gt;right354 -->
<g id="edge3" class="edge">
<title>left167&#45;&gt;right354</title>
<path fill="none" stroke="black" d="M853.75,-71.7C853.86,-63.98 853.99,-54.71 854.11,-46.11"/>
<polygon fill="black" stroke="black" points="857.61,-46.15 854.26,-36.1 850.61,-46.05 857.61,-46.15"/>
</g>
<!-- left533 -->
<g id="node6" class="node">
<title>left533</title>
<polygon fill="none" stroke="black" points="1725.5,-36 1157.5,-36 1157.5,0 1725.5,0 1725.5,-36"/>
<text text-anchor="middle" x="1441.5" y="-14.3" font-family="Times,serif" font-size="14.00">842983de8fb1d277a3fad5c8295c7a14317c458718a10c5a35b23e7f992a5c80</text>
</g>
<!-- right167&#45;&gt;left533 -->
<g id="edge5" class="edge">
<title>right167&#45;&gt;left533</title>
<path fill="none" stroke="black" d="M1442.25,-71.7C1442.14,-63.98 1442.01,-54.71 1441.89,-46.11"/>
<polygon fill="black" stroke="black" points="1445.39,-46.05 1441.74,-36.1 1438.39,-46.15 1445.39,-46.05"/>
</g>
<!-- right533 -->
<g id="node7" class="node">
<title>right533</title>
<polygon fill="none" stroke="black" points="2319,-36 1744,-36 1744,0 2319,0 2319,-36"/>
<text text-anchor="middle" x="2031.5" y="-14.3" font-family="Times,serif" font-size="14.00">4a5a97c6433c4c062457e9335709d57493e75527809d8a9586c141e591ac9f2c</text>
</g>
<!-- right167&#45;&gt;right533 -->
<g id="edge6" class="edge">
<title>right167&#45;&gt;right533</title>
<path fill="none" stroke="black" d="M1585.83,-71.97C1674.37,-61.44 1787.91,-47.95 1878.23,-37.21"/>
<polygon fill="black" stroke="black" points="1878.77,-40.68 1888.29,-36.02 1877.95,-33.72 1878.77,-40.68"/>
</g>
</g>
</svg>
